<?xml version="1.0" encoding="iso-8859-1"?>
<!-- Generator: Adobe Illustrator 19.0.0, SVG Export Plug-In . SVG Version: 6.00 Build 0)  -->
<svg version="1.1" id="Layer_1" xmlns="http://www.w3.org/2000/svg" xmlns:xlink="http://www.w3.org/1999/xlink" x="0px" y="0px"
	 viewBox="0 0 512 512" style="enable-background:new 0 0 512 512;" xml:space="preserve">
<path style="fill:#FFD24D;" d="M256,0C114.615,0,0,114.615,0,256.001c0,53.507,16.426,103.174,44.497,144.252L10.871,501.129
	l100.877-33.625C152.826,495.574,202.491,512,256,512c141.385,0,256-114.615,256-255.999C512,114.615,397.385,0,256,0z"/>
<path style="fill:#1B4145;" d="M375.744,332.549c-19.326-19.325-40.026-35.594-40.026-35.594l-30.158,30.159L184.887,206.44
	l30.159-30.158c0,0-16.268-20.7-35.594-40.026c-19.326-19.325-40.025-35.594-40.025-35.594s-36.137,33.244-38.567,59.61
	c-3.252,35.293,34.106,99.459,92.758,158.111s122.817,96.01,158.11,92.757c26.367-2.431,59.61-38.566,59.61-38.566
	S395.069,351.876,375.744,332.549z"/>
<g>
</g>
<g>
</g>
<g>
</g>
<g>
</g>
<g>
</g>
<g>
</g>
<g>
</g>
<g>
</g>
<g>
</g>
<g>
</g>
<g>
</g>
<g>
</g>
<g>
</g>
<g>
</g>
<g>
</g>
</svg>
