<?xml version="1.0" encoding="iso-8859-1"?>
<!-- Generator: Adobe Illustrator 19.0.0, SVG Export Plug-In . SVG Version: 6.00 Build 0)  -->
<svg version="1.1" id="Layer_1" xmlns="http://www.w3.org/2000/svg" xmlns:xlink="http://www.w3.org/1999/xlink" x="0px" y="0px"
	 viewBox="0 0 512 512" style="enable-background:new 0 0 512 512;" xml:space="preserve">
<path style="fill:#FFCA4F;" d="M256,511.999c140.998,0,256-114.999,256-255.998c0-141-115.002-256-256-256
	c-140.999,0-256,115-256,256C0,397,115.001,511.999,256,511.999z"/>
<path style="fill:#666666;" d="M345.014,248.531l75.664,34.347l71.222-32.331l-75.664-34.35L345.014,248.531z"/>
<path style="fill:#F0B97D;" d="M403.384,327.49c10.05,0,20.096,0,30.145,0l2.441,25.405l7.376,5.416l41.222,13.066
	c-30.217,59.745-83.166,106.031-147.474,127.497c2.158-34.772,4.219-109.838,5.132-114.628c1.125-5.89,7.448-12.022,7.448-12.022
	l44.191-14.105l7.078-5.223L403.384,327.49L403.384,327.49z"/>
<path style="fill:#FFFFFF;" d="M440.7,366.075c-7.275,8.498-31.568,12.165-44.95-2.353l22.709,67.586L440.7,366.075z"/>
<path style="fill:#FED198;" d="M380.82,288.902c-9.452-1.675-1.396,26.558,5.509,22.348l3.707,10.883
	c3.338,9.804,11.758,18.729,18.167,25.794c2.501,2.758,17.822,2.712,20.297,0.106c7.098-7.464,15.529-15.847,18.695-25.956
	l3.39-10.828c6.917,4.206,14.958-24.022,5.509-22.348c0.655-21.977-14.885-43.299-37.636-43.398
	C395.706,245.603,380.164,266.925,380.82,288.902L380.82,288.902z"/>
<path style="fill:#FF757C;" d="M393.867,358.119l-44.191,14.105c0,0-6.325,6.132-7.448,12.021
	c-1.014,5.324-3.448,89.281-5.854,114.864c64.635-21.359,117.863-67.77,148.195-127.731l-41.222-13.066l-24.889,72.996
	L393.867,358.119z"/>
<path style="fill:#666666;" d="M445.594,249.835c2.671-0.312,12.319,8.5,13.477,18.707c1.156,10.202-1.063,20.489-1.063,20.489
	c-6.79-0.329-4.652,10.05-6.128,11.69l-1.912,0.042l-0.715-6.964c-8.455-5.299,3.335-26.234-5.12-28.072
	c-14.476,11.924-35.951,16.336-54.686,13.274c-5.26,0.699,2.391,7.347,0.172,14.994c-1.635,2.856-0.66,7.359-0.66,7.359
	l-2.446,0.304c0,0-1.549-12.91-6.263-12.857c-1.146-5.95-1.617-9.501-1.301-14.77C380.563,247.057,416.828,231.697,445.594,249.835
	L445.594,249.835z"/>
<path style="fill:#807D7D;" d="M378.987,251.314c17.159-13.068,64.548-13.325,79.856-0.117l0.806,21.32
	c-26.713-7.93-54.282-7.204-81.595,0.813L378.987,251.314z"/>
<path style="fill:#FFFFFF;" d="M364.318,240.554l0.12,37.797v1.168h-2.216v-1.168v-37.08
	C362.301,239.103,364.169,238.804,364.318,240.554z"/>
<path style="fill:#FF5B61;" d="M359.258,285.167c0,10.068-2.114,18.733-2.231,19.309c-0.119,0.579,1.917,2.476,2.309,0.579
	c0.39-1.9-0.038,0.039,1.76,0.164c1.772,0.122,2.141-0.757,2.154-0.783c0.008,0.026,0.379,0.905,2.151,0.783
	c1.799-0.125,1.37-2.064,1.761-0.164c0.392,1.898,2.426,0,2.307-0.579c-0.117-0.576-2.228-9.241-2.228-19.309
	c-0.094-3.856-1.604-5.673-3.991-6.228C360.861,279.494,359.35,281.311,359.258,285.167L359.258,285.167z"/>
<path style="fill:#807D7D;" d="M363.295,278.938c3.959,0,4.073,2.512,3.872,4.839c-0.874-0.756-2.281-1.248-3.872-1.248
	c-1.59,0-2.997,0.493-3.872,1.248C359.285,281.075,359.338,278.938,363.295,278.938z"/>
<path style="fill:#666666;" d="M21.749,248.531l75.662,34.347l71.224-32.331l-75.665-34.35L21.749,248.531L21.749,248.531z"/>
<path style="fill:#F0B97D;" d="M80.12,327.49c10.048,0,20.096,0,30.143,0l2.444,25.405l7.376,5.416l43.893,13.913
	c0,0,5.755,3.167,7.447,12.022c0.739,3.882,2.311,81.595,3.954,114.781C111.013,477.689,57.982,431.5,27.651,371.829l42.952-13.71
	l7.076-5.223L80.12,327.49z"/>
<path style="fill:#FFFFFF;" d="M117.434,366.075c-7.273,8.498-31.566,12.165-44.948-2.353l22.707,67.586L117.434,366.075
	L117.434,366.075z"/>
<path style="fill:#FED198;" d="M57.553,288.902c-9.452-1.675-1.395,26.558,5.511,22.348l3.707,10.883
	c3.338,9.804,11.757,18.729,18.166,25.794c2.501,2.758,17.824,2.712,20.299,0.106c7.096-7.464,15.527-15.847,18.693-25.956
	l3.392-10.828c6.914,4.206,14.956-24.022,5.509-22.348c0.655-21.977-14.885-43.299-37.637-43.398
	C72.44,245.603,56.898,266.925,57.553,288.902L57.553,288.902z"/>
<path style="fill:#FF757C;" d="M70.603,358.119l-42.952,13.71c30.426,59.864,83.703,106.146,148.339,127.398
	c-1.851-21.695-3.735-110.618-4.567-114.982c-1.693-8.854-7.447-12.021-7.447-12.021l-43.893-13.913l-24.89,72.996L70.603,358.119
	L70.603,358.119z"/>
<path style="fill:#666666;" d="M122.33,249.835c2.67-0.312,12.319,8.5,13.474,18.707c1.157,10.202-1.062,20.489-1.062,20.489
	c-6.788-0.329-4.652,10.05-6.13,11.69l-1.912,0.042l-0.713-6.964c-8.455-5.299,3.335-26.234-5.123-28.072
	c-14.474,11.924-35.951,16.336-54.686,13.274c-5.26,0.699,2.393,7.347,0.172,14.994c-1.634,2.856-0.658,7.359-0.658,7.359
	l-2.446,0.304c0,0-1.55-12.91-6.265-12.857c-1.144-5.95-1.617-9.501-1.299-14.77C57.296,247.057,93.562,231.697,122.33,249.835
	L122.33,249.835z"/>
<path style="fill:#807D7D;" d="M55.722,251.314c17.159-13.068,64.549-13.325,79.855-0.117l0.807,21.32
	c-26.714-7.93-54.281-7.204-81.596,0.813L55.722,251.314z"/>
<path style="fill:#FFFFFF;" d="M41.053,240.554l0.119,37.797v1.168h-2.215v-1.168v-37.08
	C39.034,239.103,40.904,238.804,41.053,240.554L41.053,240.554z"/>
<path style="fill:#FF5B61;" d="M35.992,285.167c0,10.068-2.112,18.733-2.229,19.309c-0.119,0.579,1.914,2.476,2.307,0.579
	c0.39-1.9-0.038,0.039,1.76,0.164c1.774,0.122,2.143-0.757,2.154-0.783c0.011,0.026,0.382,0.905,2.151,0.783
	c1.799-0.125,1.37-2.064,1.761-0.164c0.392,1.898,2.426,0,2.309-0.579c-0.118-0.576-2.23-9.241-2.23-19.309
	c-0.093-3.856-1.604-5.673-3.991-6.228C37.595,279.494,36.085,281.311,35.992,285.167L35.992,285.167z"/>
<path style="fill:#807D7D;" d="M40.031,278.938c3.957,0,4.07,2.512,3.871,4.839c-0.872-0.756-2.281-1.248-3.871-1.248
	c-1.59,0-3,0.493-3.872,1.248C36.019,281.075,36.074,278.938,40.031,278.938z"/>
<path style="fill:#666666;" d="M119.349,139.588l145.341,65.979l136.81-62.106L256.158,77.482L119.349,139.588L119.349,139.588z"/>
<path style="fill:#F0B97D;" d="M231.47,291.261c19.303,0,38.603,0,57.905,0l4.691,48.801l14.17,10.402l84.313,26.726
	c0,0,11.056,6.081,14.306,23.09c1.711,8.986,5.744,32.065,9.537,55.227c-43.889,35.329-99.666,56.49-160.394,56.49
	c-58.14,0-111.74-19.395-154.719-52.049c5.071-24.679,11.126-51.338,12.715-59.668c2.728-14.299,14.304-23.09,14.304-23.09
	l84.891-27.096l13.595-10.03L231.47,291.261L231.47,291.261z"/>
<path style="fill:#20D0C2;" d="M303.149,365.376c-13.974,16.324-60.637,23.371-86.342-4.517l43.617,129.823L303.149,365.376
	L303.149,365.376z"/>
<path style="fill:#FED198;" d="M188.126,217.139c-18.16-3.222-2.678,51.013,10.583,42.928l7.121,20.902
	c6.412,18.833,22.584,35.978,34.894,49.551c4.806,5.296,34.238,5.207,38.993,0.202c13.632-14.335,29.826-30.436,35.907-49.857
	l6.515-20.797c13.282,8.077,28.731-46.144,10.584-42.928c1.258-42.216-28.595-83.175-72.298-83.361
	C216.72,133.964,186.866,174.923,188.126,217.139L188.126,217.139z"/>
<path style="fill:#0E7886;" d="M213.19,350.095l-84.891,27.096c0,0-11.577,8.791-14.304,23.089
	c-1.589,8.328-7.644,34.99-12.715,59.669c42.978,32.654,96.578,52.049,154.719,52.049c60.729,0,116.506-21.161,160.394-56.491
	c-3.792-23.161-7.825-46.242-9.537-55.227c-3.251-17.008-14.306-23.089-14.306-23.089l-84.313-26.727l-47.812,140.219
	L213.19,350.095z"/>
<path style="fill:#666666;" d="M312.552,142.091c5.13-0.595,23.661,16.33,25.884,35.933c2.223,19.603-2.042,39.363-2.042,39.363
	c-13.038-0.635-8.935,19.3-11.775,22.45l-3.671,0.084l-1.371-13.38c-16.243-10.177,6.405-50.392-9.841-53.921
	c-27.803,22.904-69.054,31.379-105.043,25.497c-10.102,1.346,4.594,14.114,0.329,28.801c-3.139,5.485-1.264,14.133-1.264,14.133
	l-4.701,0.587c0,0-2.972-24.798-12.03-24.698c-2.199-11.429-3.106-18.246-2.499-28.369
	C187.634,136.755,257.292,107.251,312.552,142.091L312.552,142.091z"/>
<path style="fill:#807D7D;" d="M184.605,144.937c32.959-25.104,123.99-25.597,153.396-0.225l1.548,40.951
	c-51.313-15.23-104.27-13.84-156.737,1.563L184.605,144.937z"/>
<path style="fill:#FFFFFF;" d="M156.428,124.265l0.232,72.6v2.248h-4.254v-2.248v-71.222
	C152.55,121.479,156.143,120.909,156.428,124.265L156.428,124.265z"/>
<path style="fill:#FF5B61;" d="M146.706,209.962c0,19.339-4.057,35.981-4.285,37.09c-0.224,1.11,3.684,4.755,4.434,1.11
	c0.753-3.648-0.073,0.078,3.384,0.315c3.401,0.235,4.111-1.451,4.134-1.505c0.021,0.054,0.733,1.74,4.131,1.505
	c3.456-0.237,2.632-3.963,3.383-0.315c0.756,3.645,4.661,0,4.434-1.11c-0.224-1.109-4.282-17.752-4.282-37.09
	c-0.18-7.404-3.081-10.896-7.666-11.963C149.786,199.065,146.884,202.558,146.706,209.962z"/>
<path style="fill:#807D7D;" d="M154.465,197.999c7.601,0,7.822,4.826,7.437,9.296c-1.675-1.455-4.383-2.4-7.437-2.4
	c-3.056,0-5.763,0.945-7.439,2.4C146.758,202.104,146.863,197.999,154.465,197.999z"/>
<g>
</g>
<g>
</g>
<g>
</g>
<g>
</g>
<g>
</g>
<g>
</g>
<g>
</g>
<g>
</g>
<g>
</g>
<g>
</g>
<g>
</g>
<g>
</g>
<g>
</g>
<g>
</g>
<g>
</g>
</svg>
