<?xml version="1.0" encoding="utf-8"?>
<!-- Generator: Adobe Illustrator 21.1.0, SVG Export Plug-In . SVG Version: 6.00 Build 0)  -->
<svg version="1.1" xmlns="http://www.w3.org/2000/svg" xmlns:xlink="http://www.w3.org/1999/xlink" x="0px" y="0px"
	 viewBox="0 0 656.4 733.8" style="enable-background:new 0 0 656.4 733.8;" xml:space="preserve">
<style type="text/css">
	.st0{fill:#3A668B;}
	.st1{fill:#E2C49E;}
	.st2{clip-path:url(#SVGID_2_);fill:#B1C8CE;stroke:#FFFFFF;stroke-width:5;stroke-miterlimit:10;}
	.st3{clip-path:url(#SVGID_2_);fill:none;stroke:#FFFFFF;stroke-width:20;stroke-miterlimit:10;}
	.st4{clip-path:url(#SVGID_2_);fill:none;stroke:#FFFFFF;stroke-width:10;stroke-miterlimit:10;}
	.st5{clip-path:url(#SVGID_2_);fill:none;stroke:#FFFFFF;stroke-width:5;stroke-miterlimit:10;}
</style>
<g id="Calque_2">
	<path class="st0" d="M59.8,660.7L0,0h656.4l-59.6,660.4l-269.1,73.5"/>
	<path class="st1" d="M335,485.3c23.8-1.4,39.8-8.1,50-14.1c19.1-11.1,40.2-32.2,40.2-32.2c1.5-0.2,9.2-1.2,16.2,4.1
		c6.5,4.9,8,11.7,8.3,13.3c5.5,6.5,13.7,15,25.3,22.7c10.1,6.7,19.7,10.8,27.1,13.4c21.6-7,37.7-15.5,46.9-20.4
		c3.5-1.9,6.8-3.8,10.1-5.7l37.4-412.2H328.2v427.6c0.3,0.1,0.5,0.3,0.8,0.4C331,483.3,333,484.3,335,485.3z"/>
	<g>
		<defs>
			<polygon id="SVGID_1_" points="328.2,54.2 59.9,54.2 111.1,617.8 328.2,677.6 545.3,617.8 596.4,54.2 			"/>
		</defs>
		<clipPath id="SVGID_2_">
			<use xlink:href="#SVGID_1_"  style="overflow:visible;"/>
		</clipPath>
		<path class="st2" d="M475,479.2c-19.1-10.4-29.7-9.4-36-6c-6.2,3.4-10.3,10.4-14,9c-3.4-1.3-1.7-7.8-5-12c-3.4-4.2-12.2-6.3-35,1
			c19.1-11.1,40.2-32.2,40.2-32.2c1.5-0.2,9.2-1.2,16.2,4.1c6.5,4.9,8,11.7,8.3,13.3C455.1,463,463.4,471.5,475,479.2z"/>
		<path class="st2" d="M265.2,274.7c-3.1-12.6-17-65.9-48.2-73.5c-2.2-0.5-14.6-3.6-19,2c-6.3,8,8.3,27.7,5,30
			c-2.3,1.6-9.3-7.8-22-16c-17.6-11.4-36.7-14.7-38-12c-1.5,3,18.8,12.8,17,19c-1.2,3.9-11.5,2.5-26,5c-12.4,2.2-39.6,9.4-41,21
			c-1,8.7,12.7,19,25,23c19.5,6.4,36.7-2.8,39,2c2.5,5.1-17.3,15.4-15,23c2.8,9.5,35.5-0.8,55,18c8.7,8.3,12.7,20.4,10,23
			c-3,2.9-12.6-7.4-20-4c-9.8,4.5-4.5,28-11,30c-8.6,2.7-23-36.8-40-35c-7.7,0.8-9.7,9.5-18,9c-10.7-0.7-16.2-15.7-20-14
			c-3.5,1.6-0.2,15.3,0,16c1.5,6.2,3.6,14.4,9,16c5.8,1.8,9.4-5.6,17-5c8.1,0.7,13.4,9.9,14,11c9.8,17.2-3.9,46.6-16,48
			c-8.6,1-12.7-21.6-35-30c-3.2-1.2-17.7-6.7-28,0c-11.1,7.2-10.3,23.8-16,24c-4.8,0.2-8.7-11.2-9-12c-7.4-21.7,9.3-33.9,3-50
			c-5.5-14-25.3-23.2-34-18c-4.4,2.6-6.2,9-6,14c0.6,13.6,16.5,17.3,16,28c-0.3,6.7-7.1,13.9-14,15c-11.8,1.8-16-15.4-33-19
			c-14.6-3.1-32.4,5.2-35,16c-1.5,6.5,2.3,14.9,7,16c4.5,1,6.4-5.2,14-7c9-2.2,17.5,3.8,22,7c3.9,2.7,12.5,8.7,15,20
			c0.6,2.6,2.8,12.7-3,20c-4.6,5.8-11.8,6.7-22,8c-5.8,0.7-14.9,1.2-26-1l-19-129c14.1-6.2,34.3-16.4,56.4-32.3
			c27.3-19.7,36-32.8,57.6-53.7c20.8-20.1,63.6-61.3,125-80c22.5-6.9,49.9-15.2,84-7c43.3,10.4,68.7,40.7,73,46
			c8.3,10.2,13.7,19.9,17,27l1.6,4.2l0,0c9.3,2.4,19,6.4,28.4,12.8c16.8,11.4,26.5,26.2,31.9,36.9l0,0l-5.9,2.1
			c-4.1-5.7-10.9-8-16-6c-6.5,2.6-8.6,11.4-7,17c1.8,6.5,7.9,6.3,11,15c1.5,4.1,2.2,9.9,2,10c-0.1,0-0.2-0.3-0.2-0.4
			c-0.9-2.2-12.3-12.1-21.8-5.6c-3.5,2.4-5.7,6.4-6.2,10.6l0,0c-4.7-8.9-12.1-18.9-23.8-26.6C310.3,272.9,286.1,266.2,265.2,274.7
			L265.2,274.7z"/>
		<path class="st3" d="M-81,313.2c14.1-6.2,34.3-16.4,56.4-32.3c27.3-19.7,36-32.8,57.6-53.7c20.8-20.1,63.6-61.3,125-80
			c22.5-6.9,49.9-15.2,84-7c43.3,10.4,68.7,40.7,73,46c8.3,10.2,13.7,19.9,17,27l1.6,4.2"/>
		<path class="st3" d="M238,238.2c7.7-6,21.2-15,40-20c7.4-2,47.8-12.6,84,12c21.4,14.5,31.2,34.4,35.4,44.6"/>
		<path class="st3" d="M578.3,453.8c15.7-11.2,27.2-21.7,33.7-27.6c22.7-20.9,43.3-45.8,46-49c11.8-14.3,18.9-24.5,34-40
			c10.9-11.2,20.6-19.7,27-25"/>
		<path class="st3" d="M357,329.2c-1.4-6.3-7.8-30.7-31-46c-17-11.2-44.1-18.1-66-6c-14.3,7.9-20.9,20.8-23,25
			c-26.1,52.6,28.8,124.6,33,130c10.3,13.2,29.2,34,59,50c42.5,22.8,82,22.5,104.1,22.1c57.4-1.2,98.6-22.8,115.9-32.1
			c11-5.9,20.8-12.2,29.3-18.3"/>
		<path class="st3" d="M381.5,500.7c18.5,5,45.2,10.6,77.5,11.5c21,0.6,51.1-0.6,107.1-14.5c38.9-9.6,91.8-25.6,152.9-53.5"/>
		<path class="st3" d="M335,485.3c23.8-1.3,39.8-8.1,50-14.1c19.1-11.1,40.2-32.2,40.2-32.2c1.5-0.2,9.2-1.2,16.2,4.1
			c6.5,4.9,8,11.7,8.3,13.3c5.5,6.5,13.7,15,25.3,22.7c10.1,6.7,19.7,10.8,27.1,13.4"/>
		<path class="st4" d="M275,355.8"/>
		<path class="st5" d="M-62,442.2c11.1,2.2,20.2,1.7,26,1c10.2-1.3,17.4-2.2,22-8c5.8-7.3,3.6-17.4,3-20c-2.5-11.3-11.1-17.3-15-20
			c-4.5-3.2-13-9.2-22-7c-7.6,1.8-9.5,8-14,7c-4.7-1.1-8.5-9.5-7-16c2.6-10.8,20.4-19.1,35-16c17,3.6,21.2,20.8,33,19
			c6.9-1.1,13.7-8.3,14-15c0.5-10.7-15.4-14.4-16-28c-0.2-5,1.6-11.4,6-14c8.7-5.2,28.5,4,34,18c6.3,16.1-10.4,28.3-3,50
			c0.3,0.8,4.2,12.2,9,12c5.7-0.2,4.9-16.8,16-24c10.3-6.7,24.8-1.2,28,0c22.3,8.4,26.4,31,35,30c12.1-1.4,25.8-30.8,16-48
			c-0.6-1.1-5.9-10.3-14-11c-7.6-0.6-11.2,6.8-17,5c-5.4-1.6-7.5-9.8-9-16c-0.2-0.7-3.5-14.4,0-16c3.8-1.7,9.3,13.3,20,14
			c8.3,0.5,10.3-8.2,18-9c17-1.8,31.4,37.7,40,35c6.5-2,1.2-25.5,11-30c7.4-3.4,17,6.9,20,4c2.7-2.6-1.3-14.7-10-23
			c-19.5-18.8-52.2-8.5-55-18c-2.3-7.6,17.5-17.9,15-23c-2.3-4.8-19.5,4.4-39-2c-12.3-4-26-14.3-25-23c1.4-11.6,28.6-18.8,41-21
			c14.5-2.5,24.8-1.1,26-5c1.8-6.2-18.5-16-17-19c1.3-2.7,20.4,0.6,38,12c12.7,8.2,19.7,17.6,22,16c3.3-2.3-11.3-22-5-30
			c4.4-5.6,16.8-2.5,19-2c31.2,7.6,45.1,60.9,48.2,73.5"/>
		<path class="st5" d="M301,604.2c-11.7-4.6-31.5-14.2-48-34c-18.3-22-28.8-51.9-24-55c3.3-2.1,13.7,8.9,18,13
			c53.5,51.9,196.7,49.1,197,46c0.2-2.1-61.8-3.2-119-40c-5.3-3.4-25.1-16.1-23-21c0.8-1.9,5.7-4.1,35,3
			c77.9,18.9,144.4,58.7,146,56c1.3-2.2-42.4-29.5-40-34c3-5.7,77.4,29.1,80,24c1.8-3.5-29.8-21.3-28-25c2.8-5.8,82.1,28,83,26
			c0.8-1.8-63.6-29.9-62-34c1.7-4.4,78.3,21.6,80,17c1.2-3.3-37.4-18.9-36-23c1.7-4.9,59.2,11.5,60,9c0.7-2.5-52.9-19.8-52-23
			c1-3.6,67.2,12.9,69,7c1.1-3.7-24.2-12.4-23-18c1.1-5,22.5-4.9,49-3"/>
		<path class="st5" d="M385,471.2c22.8-7.3,31.6-5.2,35-1c3.3,4.2,1.6,10.7,5,12c3.7,1.4,7.8-5.6,14-9c6.3-3.4,16.9-4.4,36,6"/>
		<path class="st5" d="M353,321.2c-5.5-7.2-3.8-17.4,3-22c9.5-6.5,20.9,3.4,21.8,5.6c0,0.1,0.2,0.4,0.2,0.4c0.2-0.1-0.5-5.9-2-10
			c-3.1-8.7-9.2-8.5-11-15c-1.6-5.6,0.5-14.4,7-17c5.1-2,11.9,0.3,16,6l5.9-2.1"/>
	</g>
	<g id="Calque_1">
		<g id="Layer_4">
		</g>
	</g>
</g>
<g id="Calque_3">
</g>
</svg>
